<svg xmlns="http://www.w3.org/2000/svg" xmlns:xlink="http://www.w3.org/1999/xlink" width="500" zoomAndPan="magnify" viewBox="0 0 375 374.999991" height="500" preserveAspectRatio="xMidYMid meet" version="1.0"><defs><g/><clipPath id="34df846458"><path d="M 60.527344 156.945312 L 124.277344 156.945312 L 124.277344 171.945312 L 60.527344 171.945312 Z M 60.527344 156.945312 " clip-rule="nonzero"/></clipPath><clipPath id="7fa0a3881c"><path d="M 60.527344 164.421875 C 60.527344 166.40625 61.3125 168.304688 62.714844 169.707031 C 64.117188 171.109375 66.019531 171.898438 68.003906 171.898438 L 116.679688 171.898438 C 118.664062 171.898438 120.566406 171.109375 121.96875 169.707031 C 123.371094 168.304688 124.15625 166.40625 124.15625 164.421875 C 124.15625 162.4375 123.371094 160.535156 121.96875 159.132812 C 120.566406 157.734375 118.664062 156.945312 116.679688 156.945312 L 68.003906 156.945312 C 66.019531 156.945312 64.117188 157.734375 62.714844 159.132812 C 61.3125 160.535156 60.527344 162.4375 60.527344 164.421875 Z M 60.527344 164.421875 " clip-rule="nonzero"/></clipPath></defs><g clip-path="url(#34df846458)"><g clip-path="url(#7fa0a3881c)"><path fill="#7d72b0" d="M 60.929688 165.035156 C 60.707031 165.035156 60.527344 164.855469 60.527344 164.632812 L 60.527344 164.210938 C 60.527344 163.988281 60.707031 163.808594 60.929688 163.808594 C 61.152344 163.808594 61.332031 163.988281 61.332031 164.210938 L 61.332031 164.632812 C 61.332031 164.855469 61.152344 165.035156 60.929688 165.035156 Z M 62.828125 165.269531 L 62.828125 163.574219 C 62.828125 163.351562 62.648438 163.171875 62.425781 163.171875 C 62.203125 163.171875 62.023438 163.351562 62.023438 163.574219 L 62.023438 165.269531 C 62.023438 165.492188 62.203125 165.671875 62.425781 165.671875 C 62.648438 165.671875 62.828125 165.492188 62.828125 165.269531 Z M 64.324219 166.679688 L 64.324219 162.164062 C 64.324219 161.941406 64.144531 161.761719 63.921875 161.761719 C 63.699219 161.761719 63.519531 161.941406 63.519531 162.164062 L 63.519531 166.679688 C 63.519531 166.902344 63.699219 167.082031 63.921875 167.082031 C 64.144531 167.082031 64.324219 166.902344 64.324219 166.679688 Z M 65.824219 165.269531 L 65.824219 163.574219 C 65.824219 163.351562 65.640625 163.171875 65.417969 163.171875 C 65.199219 163.171875 65.015625 163.351562 65.015625 163.574219 L 65.015625 165.269531 C 65.015625 165.492188 65.199219 165.671875 65.417969 165.671875 C 65.640625 165.671875 65.824219 165.492188 65.824219 165.269531 Z M 67.320312 164.875 L 67.320312 163.96875 C 67.320312 163.746094 67.140625 163.566406 66.917969 163.566406 C 66.695312 163.566406 66.515625 163.746094 66.515625 163.96875 L 66.515625 164.875 C 66.515625 165.097656 66.695312 165.277344 66.917969 165.277344 C 67.140625 165.277344 67.320312 165.097656 67.320312 164.875 Z M 68.816406 165.777344 L 68.816406 163.066406 C 68.816406 162.84375 68.636719 162.664062 68.414062 162.664062 C 68.191406 162.664062 68.011719 162.84375 68.011719 163.066406 L 68.011719 165.777344 C 68.011719 166 68.191406 166.179688 68.414062 166.179688 C 68.636719 166.179688 68.816406 166 68.816406 165.777344 Z M 70.3125 167.285156 L 70.3125 161.5625 C 70.3125 161.339844 70.132812 161.160156 69.910156 161.160156 C 69.6875 161.160156 69.507812 161.339844 69.507812 161.5625 L 69.507812 167.285156 C 69.507812 167.503906 69.6875 167.6875 69.910156 167.6875 C 70.132812 167.6875 70.3125 167.503906 70.3125 167.285156 Z M 71.8125 169.128906 L 71.8125 159.71875 C 71.8125 159.496094 71.632812 159.316406 71.410156 159.316406 C 71.1875 159.316406 71.007812 159.496094 71.007812 159.71875 L 71.007812 169.128906 C 71.007812 169.347656 71.1875 169.53125 71.410156 169.53125 C 71.632812 169.53125 71.8125 169.347656 71.8125 169.128906 Z M 73.308594 167.144531 L 73.308594 161.699219 C 73.308594 161.476562 73.128906 161.296875 72.90625 161.296875 C 72.683594 161.296875 72.503906 161.476562 72.503906 161.699219 L 72.503906 167.144531 C 72.503906 167.367188 72.683594 167.546875 72.90625 167.546875 C 73.128906 167.546875 73.308594 167.367188 73.308594 167.144531 Z M 74.804688 165.777344 L 74.804688 163.066406 C 74.804688 162.84375 74.625 162.664062 74.402344 162.664062 C 74.179688 162.664062 74 162.84375 74 163.066406 L 74 165.777344 C 74 166 74.179688 166.179688 74.402344 166.179688 C 74.625 166.179688 74.804688 166 74.804688 165.777344 Z M 76.304688 165.269531 L 76.304688 163.574219 C 76.304688 163.351562 76.121094 163.171875 75.898438 163.171875 C 75.675781 163.171875 75.496094 163.351562 75.496094 163.574219 L 75.496094 165.269531 C 75.496094 165.492188 75.675781 165.671875 75.898438 165.671875 C 76.121094 165.671875 76.304688 165.492188 76.304688 165.269531 Z M 77.800781 164.726562 L 77.800781 164.117188 C 77.800781 163.894531 77.617188 163.714844 77.394531 163.714844 C 77.175781 163.714844 76.992188 163.894531 76.992188 164.117188 L 76.992188 164.726562 C 76.992188 164.949219 77.175781 165.128906 77.394531 165.128906 C 77.617188 165.128906 77.800781 164.949219 77.800781 164.726562 Z M 79.296875 165.621094 L 79.296875 163.226562 C 79.296875 163.003906 79.117188 162.824219 78.894531 162.824219 C 78.671875 162.824219 78.492188 163.003906 78.492188 163.226562 L 78.492188 165.621094 C 78.492188 165.84375 78.671875 166.023438 78.894531 166.023438 C 79.117188 166.023438 79.296875 165.84375 79.296875 165.621094 Z M 80.792969 165.121094 L 80.792969 163.722656 C 80.792969 163.5 80.613281 163.320312 80.390625 163.320312 C 80.167969 163.320312 79.988281 163.5 79.988281 163.722656 L 79.988281 165.121094 C 79.988281 165.34375 80.167969 165.523438 80.390625 165.523438 C 80.613281 165.523438 80.792969 165.34375 80.792969 165.121094 Z M 82.289062 166.859375 L 82.289062 161.984375 C 82.289062 161.761719 82.109375 161.582031 81.886719 161.582031 C 81.664062 161.582031 81.484375 161.761719 81.484375 161.984375 L 81.484375 166.859375 C 81.484375 167.082031 81.664062 167.261719 81.886719 167.261719 C 82.109375 167.261719 82.289062 167.082031 82.289062 166.859375 Z M 83.789062 168.980469 L 83.789062 159.867188 C 83.789062 159.644531 83.609375 159.464844 83.386719 159.464844 C 83.164062 159.464844 82.984375 159.644531 82.984375 159.867188 L 82.984375 168.980469 C 82.984375 169.199219 83.164062 169.382812 83.386719 169.382812 C 83.609375 169.382812 83.789062 169.199219 83.789062 168.980469 Z M 85.285156 171.480469 L 85.285156 157.367188 C 85.285156 157.144531 85.105469 156.964844 84.882812 156.964844 C 84.660156 156.964844 84.480469 157.144531 84.480469 157.367188 L 84.480469 171.480469 C 84.480469 171.703125 84.660156 171.882812 84.882812 171.882812 C 85.105469 171.882812 85.285156 171.703125 85.285156 171.480469 Z M 86.78125 168.980469 L 86.78125 159.867188 C 86.78125 159.644531 86.601562 159.464844 86.378906 159.464844 C 86.15625 159.464844 85.976562 159.644531 85.976562 159.867188 L 85.976562 168.980469 C 85.976562 169.199219 86.15625 169.382812 86.378906 169.382812 C 86.601562 169.382812 86.78125 169.199219 86.78125 168.980469 Z M 88.28125 166.859375 L 88.28125 161.984375 C 88.28125 161.761719 88.097656 161.582031 87.875 161.582031 C 87.652344 161.582031 87.472656 161.761719 87.472656 161.984375 L 87.472656 166.859375 C 87.472656 167.082031 87.652344 167.261719 87.875 167.261719 C 88.097656 167.261719 88.28125 167.082031 88.28125 166.859375 Z M 89.777344 165.164062 L 89.777344 163.679688 C 89.777344 163.457031 89.597656 163.277344 89.375 163.277344 C 89.152344 163.277344 88.972656 163.457031 88.972656 163.679688 L 88.972656 165.164062 C 88.972656 165.386719 89.152344 165.566406 89.375 165.566406 C 89.597656 165.566406 89.777344 165.386719 89.777344 165.164062 Z M 91.273438 165.683594 L 91.273438 163.160156 C 91.273438 162.9375 91.09375 162.757812 90.871094 162.757812 C 90.648438 162.757812 90.46875 162.9375 90.46875 163.160156 L 90.46875 165.683594 C 90.46875 165.90625 90.648438 166.085938 90.871094 166.085938 C 91.09375 166.085938 91.273438 165.90625 91.273438 165.683594 Z M 92.769531 166.859375 L 92.769531 161.984375 C 92.769531 161.761719 92.589844 161.582031 92.367188 161.582031 C 92.144531 161.582031 91.964844 161.761719 91.964844 161.984375 L 91.964844 166.859375 C 91.964844 167.082031 92.144531 167.261719 92.367188 167.261719 C 92.589844 167.261719 92.769531 167.082031 92.769531 166.859375 Z M 94.269531 168.585938 L 94.269531 160.257812 C 94.269531 160.035156 94.089844 159.855469 93.867188 159.855469 C 93.644531 159.855469 93.464844 160.035156 93.464844 160.257812 L 93.464844 168.585938 C 93.464844 168.808594 93.644531 168.988281 93.867188 168.988281 C 94.089844 168.988281 94.269531 168.808594 94.269531 168.585938 Z M 95.765625 166.859375 L 95.765625 161.984375 C 95.765625 161.761719 95.585938 161.582031 95.363281 161.582031 C 95.140625 161.582031 94.960938 161.761719 94.960938 161.984375 L 94.960938 166.859375 C 94.960938 167.082031 95.140625 167.261719 95.363281 167.261719 C 95.585938 167.261719 95.765625 167.082031 95.765625 166.859375 Z M 97.261719 165.683594 L 97.261719 163.160156 C 97.261719 162.9375 97.082031 162.757812 96.859375 162.757812 C 96.636719 162.757812 96.457031 162.9375 96.457031 163.160156 L 96.457031 165.683594 C 96.457031 165.90625 96.636719 166.085938 96.859375 166.085938 C 97.082031 166.085938 97.261719 165.90625 97.261719 165.683594 Z M 98.757812 164.921875 L 98.757812 163.925781 C 98.757812 163.703125 98.578125 163.523438 98.355469 163.523438 C 98.132812 163.523438 97.953125 163.703125 97.953125 163.925781 L 97.953125 164.921875 C 97.953125 165.144531 98.132812 165.324219 98.355469 165.324219 C 98.578125 165.324219 98.757812 165.144531 98.757812 164.921875 Z M 100.257812 165.441406 L 100.257812 163.40625 C 100.257812 163.183594 100.078125 163.003906 99.855469 163.003906 C 99.632812 163.003906 99.453125 163.183594 99.453125 163.40625 L 99.453125 165.441406 C 99.453125 165.664062 99.632812 165.84375 99.855469 165.84375 C 100.074219 165.84375 100.257812 165.664062 100.257812 165.441406 Z M 101.753906 165.070312 L 101.753906 163.777344 C 101.753906 163.554688 101.574219 163.375 101.351562 163.375 C 101.128906 163.375 100.949219 163.554688 100.949219 163.777344 L 100.949219 165.070312 C 100.949219 165.292969 101.128906 165.472656 101.351562 165.472656 C 101.574219 165.472656 101.753906 165.292969 101.753906 165.070312 Z M 103.25 166.222656 L 103.25 162.621094 C 103.25 162.398438 103.070312 162.21875 102.847656 162.21875 C 102.625 162.21875 102.445312 162.398438 102.445312 162.621094 L 102.445312 166.222656 C 102.445312 166.445312 102.625 166.625 102.847656 166.625 C 103.070312 166.625 103.25 166.445312 103.25 166.222656 Z M 104.75 167.875 L 104.75 160.96875 C 104.75 160.746094 104.570312 160.566406 104.347656 160.566406 C 104.125 160.566406 103.941406 160.746094 103.941406 160.96875 L 103.941406 167.875 C 103.941406 168.097656 104.125 168.28125 104.347656 168.28125 C 104.566406 168.28125 104.75 168.097656 104.75 167.875 Z M 106.246094 170.207031 L 106.246094 158.636719 C 106.246094 158.414062 106.066406 158.234375 105.84375 158.234375 C 105.621094 158.234375 105.441406 158.414062 105.441406 158.636719 L 105.441406 170.207031 C 105.441406 170.429688 105.621094 170.609375 105.84375 170.609375 C 106.066406 170.609375 106.246094 170.429688 106.246094 170.207031 Z M 107.742188 167.695312 L 107.742188 161.148438 C 107.742188 160.925781 107.5625 160.746094 107.339844 160.746094 C 107.117188 160.746094 106.9375 160.925781 106.9375 161.148438 L 106.9375 167.695312 C 106.9375 167.917969 107.117188 168.097656 107.339844 168.097656 C 107.5625 168.097656 107.742188 167.917969 107.742188 167.695312 Z M 122.660156 167.695312 L 122.660156 161.148438 C 122.660156 160.925781 122.480469 160.746094 122.257812 160.746094 C 122.035156 160.746094 121.855469 160.925781 121.855469 161.148438 L 121.855469 167.695312 C 121.855469 167.917969 122.035156 168.097656 122.257812 168.097656 C 122.480469 168.097656 122.660156 167.917969 122.660156 167.695312 Z M 109.238281 165.640625 L 109.238281 163.203125 C 109.238281 162.980469 109.058594 162.800781 108.835938 162.800781 C 108.613281 162.800781 108.433594 162.980469 108.433594 163.203125 L 108.433594 165.640625 C 108.433594 165.863281 108.613281 166.042969 108.835938 166.042969 C 109.058594 166.042969 109.238281 165.863281 109.238281 165.640625 Z M 119.691406 165.640625 L 119.691406 163.203125 C 119.691406 162.980469 119.511719 162.800781 119.289062 162.800781 C 119.066406 162.800781 118.886719 162.980469 118.886719 163.203125 L 118.886719 165.640625 C 118.886719 165.863281 119.066406 166.042969 119.289062 166.042969 C 119.511719 166.042969 119.691406 165.863281 119.691406 165.640625 Z M 110.734375 164.867188 L 110.734375 163.976562 C 110.734375 163.753906 110.554688 163.574219 110.332031 163.574219 C 110.109375 163.574219 109.929688 163.753906 109.929688 163.976562 L 109.929688 164.867188 C 109.929688 165.089844 110.109375 165.269531 110.332031 165.269531 C 110.554688 165.269531 110.734375 165.089844 110.734375 164.867188 Z M 112.234375 165.25 L 112.234375 163.597656 C 112.234375 163.375 112.054688 163.195312 111.832031 163.195312 C 111.609375 163.195312 111.429688 163.375 111.429688 163.597656 L 111.429688 165.25 C 111.429688 165.472656 111.609375 165.652344 111.832031 165.652344 C 112.054688 165.652344 112.234375 165.472656 112.234375 165.25 Z M 118.207031 165.25 L 118.207031 163.597656 C 118.207031 163.375 118.027344 163.195312 117.804688 163.195312 C 117.582031 163.195312 117.402344 163.375 117.402344 163.597656 L 117.402344 165.25 C 117.402344 165.472656 117.582031 165.652344 117.804688 165.652344 C 118.027344 165.652344 118.207031 165.472656 118.207031 165.25 Z M 113.730469 166.625 L 113.730469 162.21875 C 113.730469 161.996094 113.550781 161.816406 113.328125 161.816406 C 113.105469 161.816406 112.925781 161.996094 112.925781 162.21875 L 112.925781 166.625 C 112.925781 166.847656 113.105469 167.027344 113.328125 167.027344 C 113.550781 167.027344 113.730469 166.847656 113.730469 166.625 Z M 124.140625 166.625 L 124.140625 162.21875 C 124.140625 161.996094 123.960938 161.816406 123.738281 161.816406 C 123.515625 161.816406 123.335938 161.996094 123.335938 162.21875 L 123.335938 166.625 C 123.335938 166.847656 123.515625 167.027344 123.738281 167.027344 C 123.960938 167.027344 124.140625 166.847656 124.140625 166.625 Z M 121.175781 166.625 L 121.175781 162.21875 C 121.175781 161.996094 120.996094 161.816406 120.773438 161.816406 C 120.550781 161.816406 120.371094 161.996094 120.371094 162.21875 L 120.371094 166.625 C 120.371094 166.847656 120.550781 167.027344 120.773438 167.027344 C 120.996094 167.027344 121.175781 166.847656 121.175781 166.625 Z M 115.226562 165.070312 L 115.226562 163.777344 C 115.226562 163.554688 115.046875 163.375 114.824219 163.375 C 114.601562 163.375 114.421875 163.554688 114.421875 163.777344 L 114.421875 165.070312 C 114.421875 165.292969 114.601562 165.472656 114.824219 165.472656 C 115.046875 165.472656 115.226562 165.292969 115.226562 165.070312 Z M 116.726562 165.726562 L 116.726562 163.121094 C 116.726562 162.898438 116.546875 162.714844 116.324219 162.714844 C 116.101562 162.714844 115.921875 162.898438 115.921875 163.121094 L 115.921875 165.726562 C 115.921875 165.949219 116.101562 166.128906 116.324219 166.128906 C 116.546875 166.128906 116.726562 165.949219 116.726562 165.726562 Z M 116.726562 165.726562 " fill-opacity="1" fill-rule="nonzero"/></g></g><g fill="#f5c7f7" fill-opacity="1"><g transform="translate(128.658087, 173.44994)"><g><path d="M 3.78125 -22.015625 L 12.734375 -22.015625 C 13.953125 -22.015625 14.898438 -21.804688 15.578125 -21.390625 C 16.265625 -20.972656 16.742188 -20.425781 17.015625 -19.75 C 17.296875 -19.082031 17.4375 -18.351562 17.4375 -17.5625 C 17.4375 -16.476562 17.238281 -15.566406 16.84375 -14.828125 C 16.445312 -14.097656 15.835938 -13.398438 15.015625 -12.734375 C 16.015625 -11.984375 16.851562 -11.039062 17.53125 -9.90625 C 18.21875 -8.78125 18.5625 -7.578125 18.5625 -6.296875 C 18.5625 -5.171875 18.289062 -4.128906 17.75 -3.171875 C 17.21875 -2.210938 16.484375 -1.441406 15.546875 -0.859375 C 14.609375 -0.285156 13.546875 0 12.359375 0 L 4.796875 0 C 3.753906 0 3.03125 -0.171875 2.625 -0.515625 C 2.21875 -0.859375 2.015625 -1.410156 2.015625 -2.171875 L 2.015625 -19.84375 C 2.015625 -20.457031 2.171875 -20.972656 2.484375 -21.390625 C 2.804688 -21.804688 3.238281 -22.015625 3.78125 -22.015625 Z M 6.046875 -12.359375 L 6.046875 -3.640625 L 9.984375 -3.640625 C 11.328125 -3.640625 12.390625 -3.835938 13.171875 -4.234375 C 13.953125 -4.628906 14.34375 -5.363281 14.34375 -6.4375 C 14.34375 -7.414062 14.066406 -8.257812 13.515625 -8.96875 C 12.972656 -9.6875 12.269531 -10.285156 11.40625 -10.765625 C 10.539062 -11.242188 9.632812 -11.609375 8.6875 -11.859375 C 7.738281 -12.117188 6.859375 -12.285156 6.046875 -12.359375 Z M 6.046875 -18.5625 L 6.046875 -15.546875 C 6.941406 -15.546875 7.910156 -15.441406 8.953125 -15.234375 C 10.003906 -15.035156 10.945312 -14.757812 11.78125 -14.40625 C 12.289062 -14.71875 12.6875 -15.070312 12.96875 -15.46875 C 13.257812 -15.863281 13.40625 -16.328125 13.40625 -16.859375 C 13.40625 -17.460938 13.195312 -17.894531 12.78125 -18.15625 C 12.363281 -18.425781 11.625 -18.5625 10.5625 -18.5625 Z M 6.046875 -18.5625 "/></g></g></g><g fill="#f5c7f7" fill-opacity="1"><g transform="translate(148.205281, 173.44994)"><g><path d="M 15.046875 -10.8125 L 15.046875 -1.921875 C 15.046875 -1.253906 14.90625 -0.734375 14.625 -0.359375 C 14.34375 0.00390625 13.851562 0.1875 13.15625 0.1875 C 12.175781 0.1875 11.628906 -0.425781 11.515625 -1.65625 C 11.003906 -1.019531 10.328125 -0.550781 9.484375 -0.25 C 8.640625 0.0390625 7.664062 0.1875 6.5625 0.1875 C 5.488281 0.1875 4.523438 -0.0195312 3.671875 -0.4375 C 2.828125 -0.851562 2.160156 -1.4375 1.671875 -2.1875 C 1.191406 -2.945312 0.953125 -3.835938 0.953125 -4.859375 C 0.953125 -6.015625 1.234375 -6.96875 1.796875 -7.71875 C 2.367188 -8.476562 3.101562 -9.078125 4 -9.515625 C 4.894531 -9.953125 5.859375 -10.257812 6.890625 -10.4375 C 7.929688 -10.625 8.921875 -10.71875 9.859375 -10.71875 L 11.203125 -10.71875 C 11.203125 -11.53125 11.09375 -12.078125 10.875 -12.359375 C 10.664062 -12.648438 10.347656 -12.796875 9.921875 -12.796875 L 4.0625 -12.796875 C 3.53125 -12.796875 3.082031 -12.929688 2.71875 -13.203125 C 2.351562 -13.484375 2.171875 -13.925781 2.171875 -14.53125 C 2.171875 -15.125 2.351562 -15.554688 2.71875 -15.828125 C 3.082031 -16.109375 3.53125 -16.25 4.0625 -16.25 L 9.65625 -16.25 C 11.363281 -16.25 12.6875 -15.832031 13.625 -15 C 14.570312 -14.175781 15.046875 -12.78125 15.046875 -10.8125 Z M 11.390625 -5.796875 L 11.390625 -7.84375 C 9.171875 -7.84375 7.515625 -7.5625 6.421875 -7 C 5.335938 -6.445312 4.796875 -5.800781 4.796875 -5.0625 C 4.796875 -4.394531 5.046875 -3.863281 5.546875 -3.46875 C 6.046875 -3.070312 6.78125 -2.875 7.75 -2.875 C 8.34375 -2.875 8.914062 -2.988281 9.46875 -3.21875 C 10.019531 -3.457031 10.476562 -3.796875 10.84375 -4.234375 C 11.207031 -4.671875 11.390625 -5.191406 11.390625 -5.796875 Z M 11.390625 -5.796875 "/></g></g></g><g fill="#f5c7f7" fill-opacity="1"><g transform="translate(165.992912, 173.44994)"><g><path d="M 1.953125 -1.984375 L 1.953125 -14.375 C 1.953125 -14.945312 2.101562 -15.4375 2.40625 -15.84375 C 2.71875 -16.25 3.207031 -16.453125 3.875 -16.453125 C 4.53125 -16.453125 5.015625 -16.265625 5.328125 -15.890625 C 5.640625 -15.515625 5.796875 -15.125 5.796875 -14.71875 C 7.003906 -15.875 8.441406 -16.453125 10.109375 -16.453125 C 11.265625 -16.453125 12.269531 -16.195312 13.125 -15.6875 C 13.976562 -15.1875 14.640625 -14.5 15.109375 -13.625 C 15.578125 -12.75 15.8125 -11.769531 15.8125 -10.6875 L 15.8125 -1.984375 C 15.8125 -1.410156 15.65625 -0.921875 15.34375 -0.515625 C 15.03125 -0.109375 14.546875 0.09375 13.890625 0.09375 C 13.222656 0.09375 12.734375 -0.109375 12.421875 -0.515625 C 12.117188 -0.921875 11.96875 -1.410156 11.96875 -1.984375 L 11.96875 -9.65625 C 11.96875 -11.875 11.101562 -12.984375 9.375 -12.984375 C 8.289062 -12.984375 7.421875 -12.609375 6.765625 -11.859375 C 6.117188 -11.117188 5.796875 -10.003906 5.796875 -8.515625 L 5.796875 -1.984375 C 5.796875 -1.410156 5.640625 -0.921875 5.328125 -0.515625 C 5.015625 -0.109375 4.53125 0.09375 3.875 0.09375 C 3.207031 0.09375 2.71875 -0.109375 2.40625 -0.515625 C 2.101562 -0.921875 1.953125 -1.410156 1.953125 -1.984375 Z M 1.953125 -1.984375 "/></g></g></g><g fill="#f5c7f7" fill-opacity="1"><g transform="translate(183.780543, 173.44994)"><g><path d="M 15.78125 -20.671875 L 15.78125 -1.703125 C 15.78125 -1.203125 15.644531 -0.789062 15.375 -0.46875 C 15.101562 -0.15625 14.597656 0 13.859375 0 L 8.890625 0 C 7.117188 0 5.644531 -0.320312 4.46875 -0.96875 C 3.300781 -1.625 2.421875 -2.488281 1.828125 -3.5625 C 1.242188 -4.644531 0.953125 -5.828125 0.953125 -7.109375 C 0.953125 -8.296875 1.179688 -9.445312 1.640625 -10.5625 C 2.109375 -11.6875 2.796875 -12.691406 3.703125 -13.578125 C 4.609375 -14.460938 5.75 -15.160156 7.125 -15.671875 C 8.5 -16.191406 10.101562 -16.453125 11.9375 -16.453125 L 11.9375 -20.671875 C 11.9375 -21.242188 12.085938 -21.734375 12.390625 -22.140625 C 12.703125 -22.546875 13.191406 -22.75 13.859375 -22.75 C 14.515625 -22.75 15 -22.546875 15.3125 -22.140625 C 15.625 -21.734375 15.78125 -21.242188 15.78125 -20.671875 Z M 11.9375 -3.453125 L 11.9375 -12.984375 C 10.78125 -12.984375 9.671875 -12.742188 8.609375 -12.265625 C 7.546875 -11.785156 6.675781 -11.109375 6 -10.234375 C 5.320312 -9.359375 4.984375 -8.328125 4.984375 -7.140625 C 4.984375 -6.128906 5.285156 -5.257812 5.890625 -4.53125 C 6.503906 -3.8125 7.359375 -3.453125 8.453125 -3.453125 Z M 11.9375 -3.453125 "/></g></g></g><g fill="#f5c7f7" fill-opacity="1"><g transform="translate(201.568174, 173.44994)"><g><path d="M 6.375 -14.375 L 6.375 -1.984375 C 6.375 -1.410156 6.21875 -0.921875 5.90625 -0.515625 C 5.59375 -0.109375 5.109375 0.09375 4.453125 0.09375 C 3.785156 0.09375 3.296875 -0.109375 2.984375 -0.515625 C 2.679688 -0.921875 2.53125 -1.410156 2.53125 -1.984375 L 2.53125 -14.375 C 2.53125 -14.945312 2.679688 -15.4375 2.984375 -15.84375 C 3.296875 -16.25 3.785156 -16.453125 4.453125 -16.453125 C 5.109375 -16.453125 5.59375 -16.25 5.90625 -15.84375 C 6.21875 -15.4375 6.375 -14.945312 6.375 -14.375 Z M 4.453125 -22.84375 C 5.046875 -22.84375 5.546875 -22.640625 5.953125 -22.234375 C 6.359375 -21.828125 6.5625 -21.242188 6.5625 -20.484375 C 6.5625 -19.710938 6.359375 -19.125 5.953125 -18.71875 C 5.546875 -18.3125 5.046875 -18.109375 4.453125 -18.109375 C 3.847656 -18.109375 3.34375 -18.3125 2.9375 -18.71875 C 2.539062 -19.125 2.34375 -19.710938 2.34375 -20.484375 C 2.34375 -21.242188 2.539062 -21.828125 2.9375 -22.234375 C 3.34375 -22.640625 3.847656 -22.84375 4.453125 -22.84375 Z M 4.453125 -22.84375 "/></g></g></g><g fill="#f5c7f7" fill-opacity="1"><g transform="translate(210.461984, 173.44994)"><g><path d="M 2.6875 -1.984375 L 2.6875 -12.796875 L 1.59375 -12.796875 C 1.0625 -12.796875 0.613281 -12.929688 0.25 -13.203125 C -0.101562 -13.484375 -0.28125 -13.925781 -0.28125 -14.53125 C -0.28125 -15.125 -0.101562 -15.554688 0.25 -15.828125 C 0.613281 -16.109375 1.0625 -16.25 1.59375 -16.25 L 2.6875 -16.25 L 2.6875 -18.203125 C 2.6875 -19.503906 2.945312 -20.484375 3.46875 -21.140625 C 3.988281 -21.804688 4.710938 -22.253906 5.640625 -22.484375 C 6.578125 -22.722656 7.640625 -22.84375 8.828125 -22.84375 C 9.617188 -22.84375 10.28125 -22.734375 10.8125 -22.515625 C 11.34375 -22.304688 11.609375 -21.8125 11.609375 -21.03125 C 11.609375 -20.40625 11.421875 -19.941406 11.046875 -19.640625 C 10.679688 -19.347656 10.21875 -19.203125 9.65625 -19.203125 L 8.125 -19.203125 C 7.507812 -19.203125 7.085938 -19.097656 6.859375 -18.890625 C 6.640625 -18.691406 6.53125 -18.359375 6.53125 -17.890625 L 6.53125 -16.25 L 9.1875 -16.25 C 9.695312 -16.25 10.132812 -16.109375 10.5 -15.828125 C 10.863281 -15.554688 11.046875 -15.125 11.046875 -14.53125 C 11.046875 -13.925781 10.863281 -13.484375 10.5 -13.203125 C 10.132812 -12.929688 9.695312 -12.796875 9.1875 -12.796875 L 6.53125 -12.796875 L 6.53125 -1.984375 C 6.53125 -1.410156 6.375 -0.921875 6.0625 -0.515625 C 5.75 -0.109375 5.265625 0.09375 4.609375 0.09375 C 3.941406 0.09375 3.453125 -0.109375 3.140625 -0.515625 C 2.835938 -0.921875 2.6875 -1.410156 2.6875 -1.984375 Z M 2.6875 -1.984375 "/></g></g></g><g fill="#f5c7f7" fill-opacity="1"><g transform="translate(221.115369, 173.44994)"><g><path d="M 3.8125 3.359375 L 6.4375 -0.21875 C 5.445312 -1.539062 4.554688 -2.957031 3.765625 -4.46875 C 2.984375 -5.988281 2.359375 -7.5625 1.890625 -9.1875 C 1.421875 -10.820312 1.1875 -12.472656 1.1875 -14.140625 C 1.1875 -14.828125 1.328125 -15.382812 1.609375 -15.8125 C 1.898438 -16.238281 2.367188 -16.453125 3.015625 -16.453125 C 3.523438 -16.453125 3.941406 -16.296875 4.265625 -15.984375 C 4.597656 -15.671875 4.785156 -15.175781 4.828125 -14.5 C 4.984375 -12.664062 5.335938 -10.785156 5.890625 -8.859375 C 6.441406 -6.941406 7.238281 -5.21875 8.28125 -3.6875 C 8.925781 -4.75 9.476562 -5.921875 9.9375 -7.203125 C 10.394531 -8.484375 10.773438 -9.785156 11.078125 -11.109375 C 11.390625 -12.429688 11.632812 -13.695312 11.8125 -14.90625 C 11.875 -15.375 12.070312 -15.75 12.40625 -16.03125 C 12.75 -16.3125 13.15625 -16.453125 13.625 -16.453125 C 14.125 -16.453125 14.554688 -16.28125 14.921875 -15.9375 C 15.296875 -15.59375 15.484375 -15.082031 15.484375 -14.40625 C 15.484375 -13.632812 15.328125 -12.660156 15.015625 -11.484375 C 14.710938 -10.316406 14.3125 -9.0625 13.8125 -7.71875 C 13.3125 -6.375 12.753906 -5.035156 12.140625 -3.703125 C 11.535156 -2.367188 10.929688 -1.140625 10.328125 -0.015625 C 9.734375 1.097656 9.191406 2.007812 8.703125 2.71875 L 7.078125 5.09375 C 6.796875 5.5 6.492188 5.878906 6.171875 6.234375 C 5.859375 6.597656 5.421875 6.78125 4.859375 6.78125 C 4.328125 6.78125 3.890625 6.609375 3.546875 6.265625 C 3.210938 5.929688 3.046875 5.519531 3.046875 5.03125 C 3.046875 4.644531 3.125 4.332031 3.28125 4.09375 C 3.4375 3.863281 3.613281 3.617188 3.8125 3.359375 Z M 3.8125 3.359375 "/></g></g></g></svg>