<svg xmlns="http://www.w3.org/2000/svg" xmlns:xlink="http://www.w3.org/1999/xlink" width="500" zoomAndPan="magnify" viewBox="0 0 375 374.999991" height="500" preserveAspectRatio="xMidYMid meet" version="1.2"><defs><clipPath id="6e614a5c85"><path d="M 60.527344 156.945312 L 124.277344 156.945312 L 124.277344 171.945312 L 60.527344 171.945312 Z M 60.527344 156.945312 "/></clipPath><clipPath id="b417856639"><path d="M 60.527344 164.421875 C 60.527344 166.40625 61.3125 168.304688 62.714844 169.707031 C 64.117188 171.109375 66.019531 171.898438 68.003906 171.898438 L 116.679688 171.898438 C 118.664062 171.898438 120.566406 171.109375 121.96875 169.707031 C 123.371094 168.304688 124.15625 166.40625 124.15625 164.421875 C 124.15625 162.4375 123.371094 160.535156 121.96875 159.132812 C 120.566406 157.734375 118.664062 156.945312 116.679688 156.945312 L 68.003906 156.945312 C 66.019531 156.945312 64.117188 157.734375 62.714844 159.132812 C 61.3125 160.535156 60.527344 162.4375 60.527344 164.421875 Z M 60.527344 164.421875 "/></clipPath></defs><g id="04561e96a4"><g clip-rule="nonzero" clip-path="url(#6e614a5c85)"><g clip-rule="nonzero" clip-path="url(#b417856639)"><path style=" stroke:none;fill-rule:nonzero;fill:#7d72b0;fill-opacity:1;" d="M 60.929688 165.035156 C 60.707031 165.035156 60.527344 164.855469 60.527344 164.632812 L 60.527344 164.210938 C 60.527344 163.988281 60.707031 163.808594 60.929688 163.808594 C 61.152344 163.808594 61.332031 163.988281 61.332031 164.210938 L 61.332031 164.632812 C 61.332031 164.855469 61.152344 165.035156 60.929688 165.035156 Z M 62.828125 165.269531 L 62.828125 163.574219 C 62.828125 163.351562 62.648438 163.171875 62.425781 163.171875 C 62.203125 163.171875 62.023438 163.351562 62.023438 163.574219 L 62.023438 165.269531 C 62.023438 165.492188 62.203125 165.671875 62.425781 165.671875 C 62.648438 165.671875 62.828125 165.492188 62.828125 165.269531 Z M 64.324219 166.679688 L 64.324219 162.164062 C 64.324219 161.941406 64.144531 161.761719 63.921875 161.761719 C 63.699219 161.761719 63.519531 161.941406 63.519531 162.164062 L 63.519531 166.679688 C 63.519531 166.902344 63.699219 167.082031 63.921875 167.082031 C 64.144531 167.082031 64.324219 166.902344 64.324219 166.679688 Z M 65.824219 165.269531 L 65.824219 163.574219 C 65.824219 163.351562 65.640625 163.171875 65.417969 163.171875 C 65.199219 163.171875 65.015625 163.351562 65.015625 163.574219 L 65.015625 165.269531 C 65.015625 165.492188 65.199219 165.671875 65.417969 165.671875 C 65.640625 165.671875 65.824219 165.492188 65.824219 165.269531 Z M 67.320312 164.875 L 67.320312 163.96875 C 67.320312 163.746094 67.140625 163.566406 66.917969 163.566406 C 66.695312 163.566406 66.515625 163.746094 66.515625 163.96875 L 66.515625 164.875 C 66.515625 165.097656 66.695312 165.277344 66.917969 165.277344 C 67.140625 165.277344 67.320312 165.097656 67.320312 164.875 Z M 68.816406 165.777344 L 68.816406 163.066406 C 68.816406 162.84375 68.636719 162.664062 68.414062 162.664062 C 68.191406 162.664062 68.011719 162.84375 68.011719 163.066406 L 68.011719 165.777344 C 68.011719 166 68.191406 166.179688 68.414062 166.179688 C 68.636719 166.179688 68.816406 166 68.816406 165.777344 Z M 70.3125 167.285156 L 70.3125 161.5625 C 70.3125 161.339844 70.132812 161.160156 69.910156 161.160156 C 69.6875 161.160156 69.507812 161.339844 69.507812 161.5625 L 69.507812 167.285156 C 69.507812 167.503906 69.6875 167.6875 69.910156 167.6875 C 70.132812 167.6875 70.3125 167.503906 70.3125 167.285156 Z M 71.8125 169.128906 L 71.8125 159.71875 C 71.8125 159.496094 71.632812 159.316406 71.410156 159.316406 C 71.1875 159.316406 71.007812 159.496094 71.007812 159.71875 L 71.007812 169.128906 C 71.007812 169.347656 71.1875 169.53125 71.410156 169.53125 C 71.632812 169.53125 71.8125 169.347656 71.8125 169.128906 Z M 73.308594 167.144531 L 73.308594 161.699219 C 73.308594 161.476562 73.128906 161.296875 72.90625 161.296875 C 72.683594 161.296875 72.503906 161.476562 72.503906 161.699219 L 72.503906 167.144531 C 72.503906 167.367188 72.683594 167.546875 72.90625 167.546875 C 73.128906 167.546875 73.308594 167.367188 73.308594 167.144531 Z M 74.804688 165.777344 L 74.804688 163.066406 C 74.804688 162.84375 74.625 162.664062 74.402344 162.664062 C 74.179688 162.664062 74 162.84375 74 163.066406 L 74 165.777344 C 74 166 74.179688 166.179688 74.402344 166.179688 C 74.625 166.179688 74.804688 166 74.804688 165.777344 Z M 76.304688 165.269531 L 76.304688 163.574219 C 76.304688 163.351562 76.121094 163.171875 75.898438 163.171875 C 75.675781 163.171875 75.496094 163.351562 75.496094 163.574219 L 75.496094 165.269531 C 75.496094 165.492188 75.675781 165.671875 75.898438 165.671875 C 76.121094 165.671875 76.304688 165.492188 76.304688 165.269531 Z M 77.800781 164.726562 L 77.800781 164.117188 C 77.800781 163.894531 77.617188 163.714844 77.394531 163.714844 C 77.175781 163.714844 76.992188 163.894531 76.992188 164.117188 L 76.992188 164.726562 C 76.992188 164.949219 77.175781 165.128906 77.394531 165.128906 C 77.617188 165.128906 77.800781 164.949219 77.800781 164.726562 Z M 79.296875 165.621094 L 79.296875 163.226562 C 79.296875 163.003906 79.117188 162.824219 78.894531 162.824219 C 78.671875 162.824219 78.492188 163.003906 78.492188 163.226562 L 78.492188 165.621094 C 78.492188 165.84375 78.671875 166.023438 78.894531 166.023438 C 79.117188 166.023438 79.296875 165.84375 79.296875 165.621094 Z M 80.792969 165.121094 L 80.792969 163.722656 C 80.792969 163.5 80.613281 163.320312 80.390625 163.320312 C 80.167969 163.320312 79.988281 163.5 79.988281 163.722656 L 79.988281 165.121094 C 79.988281 165.34375 80.167969 165.523438 80.390625 165.523438 C 80.613281 165.523438 80.792969 165.34375 80.792969 165.121094 Z M 82.289062 166.859375 L 82.289062 161.984375 C 82.289062 161.761719 82.109375 161.582031 81.886719 161.582031 C 81.664062 161.582031 81.484375 161.761719 81.484375 161.984375 L 81.484375 166.859375 C 81.484375 167.082031 81.664062 167.261719 81.886719 167.261719 C 82.109375 167.261719 82.289062 167.082031 82.289062 166.859375 Z M 83.789062 168.980469 L 83.789062 159.867188 C 83.789062 159.644531 83.609375 159.464844 83.386719 159.464844 C 83.164062 159.464844 82.984375 159.644531 82.984375 159.867188 L 82.984375 168.980469 C 82.984375 169.199219 83.164062 169.382812 83.386719 169.382812 C 83.609375 169.382812 83.789062 169.199219 83.789062 168.980469 Z M 85.285156 171.480469 L 85.285156 157.367188 C 85.285156 157.144531 85.105469 156.964844 84.882812 156.964844 C 84.660156 156.964844 84.480469 157.144531 84.480469 157.367188 L 84.480469 171.480469 C 84.480469 171.703125 84.660156 171.882812 84.882812 171.882812 C 85.105469 171.882812 85.285156 171.703125 85.285156 171.480469 Z M 86.78125 168.980469 L 86.78125 159.867188 C 86.78125 159.644531 86.601562 159.464844 86.378906 159.464844 C 86.15625 159.464844 85.976562 159.644531 85.976562 159.867188 L 85.976562 168.980469 C 85.976562 169.199219 86.15625 169.382812 86.378906 169.382812 C 86.601562 169.382812 86.78125 169.199219 86.78125 168.980469 Z M 88.28125 166.859375 L 88.28125 161.984375 C 88.28125 161.761719 88.097656 161.582031 87.875 161.582031 C 87.652344 161.582031 87.472656 161.761719 87.472656 161.984375 L 87.472656 166.859375 C 87.472656 167.082031 87.652344 167.261719 87.875 167.261719 C 88.097656 167.261719 88.28125 167.082031 88.28125 166.859375 Z M 89.777344 165.164062 L 89.777344 163.679688 C 89.777344 163.457031 89.597656 163.277344 89.375 163.277344 C 89.152344 163.277344 88.972656 163.457031 88.972656 163.679688 L 88.972656 165.164062 C 88.972656 165.386719 89.152344 165.566406 89.375 165.566406 C 89.597656 165.566406 89.777344 165.386719 89.777344 165.164062 Z M 91.273438 165.683594 L 91.273438 163.160156 C 91.273438 162.9375 91.09375 162.757812 90.871094 162.757812 C 90.648438 162.757812 90.46875 162.9375 90.46875 163.160156 L 90.46875 165.683594 C 90.46875 165.90625 90.648438 166.085938 90.871094 166.085938 C 91.09375 166.085938 91.273438 165.90625 91.273438 165.683594 Z M 92.769531 166.859375 L 92.769531 161.984375 C 92.769531 161.761719 92.589844 161.582031 92.367188 161.582031 C 92.144531 161.582031 91.964844 161.761719 91.964844 161.984375 L 91.964844 166.859375 C 91.964844 167.082031 92.144531 167.261719 92.367188 167.261719 C 92.589844 167.261719 92.769531 167.082031 92.769531 166.859375 Z M 94.269531 168.585938 L 94.269531 160.257812 C 94.269531 160.035156 94.089844 159.855469 93.867188 159.855469 C 93.644531 159.855469 93.464844 160.035156 93.464844 160.257812 L 93.464844 168.585938 C 93.464844 168.808594 93.644531 168.988281 93.867188 168.988281 C 94.089844 168.988281 94.269531 168.808594 94.269531 168.585938 Z M 95.765625 166.859375 L 95.765625 161.984375 C 95.765625 161.761719 95.585938 161.582031 95.363281 161.582031 C 95.140625 161.582031 94.960938 161.761719 94.960938 161.984375 L 94.960938 166.859375 C 94.960938 167.082031 95.140625 167.261719 95.363281 167.261719 C 95.585938 167.261719 95.765625 167.082031 95.765625 166.859375 Z M 97.261719 165.683594 L 97.261719 163.160156 C 97.261719 162.9375 97.082031 162.757812 96.859375 162.757812 C 96.636719 162.757812 96.457031 162.9375 96.457031 163.160156 L 96.457031 165.683594 C 96.457031 165.90625 96.636719 166.085938 96.859375 166.085938 C 97.082031 166.085938 97.261719 165.90625 97.261719 165.683594 Z M 98.757812 164.921875 L 98.757812 163.925781 C 98.757812 163.703125 98.578125 163.523438 98.355469 163.523438 C 98.132812 163.523438 97.953125 163.703125 97.953125 163.925781 L 97.953125 164.921875 C 97.953125 165.144531 98.132812 165.324219 98.355469 165.324219 C 98.578125 165.324219 98.757812 165.144531 98.757812 164.921875 Z M 100.257812 165.441406 L 100.257812 163.40625 C 100.257812 163.183594 100.078125 163.003906 99.855469 163.003906 C 99.632812 163.003906 99.453125 163.183594 99.453125 163.40625 L 99.453125 165.441406 C 99.453125 165.664062 99.632812 165.84375 99.855469 165.84375 C 100.074219 165.84375 100.257812 165.664062 100.257812 165.441406 Z M 101.753906 165.070312 L 101.753906 163.777344 C 101.753906 163.554688 101.574219 163.375 101.351562 163.375 C 101.128906 163.375 100.949219 163.554688 100.949219 163.777344 L 100.949219 165.070312 C 100.949219 165.292969 101.128906 165.472656 101.351562 165.472656 C 101.574219 165.472656 101.753906 165.292969 101.753906 165.070312 Z M 103.25 166.222656 L 103.25 162.621094 C 103.25 162.398438 103.070312 162.21875 102.847656 162.21875 C 102.625 162.21875 102.445312 162.398438 102.445312 162.621094 L 102.445312 166.222656 C 102.445312 166.445312 102.625 166.625 102.847656 166.625 C 103.070312 166.625 103.25 166.445312 103.25 166.222656 Z M 104.75 167.875 L 104.75 160.96875 C 104.75 160.746094 104.570312 160.566406 104.347656 160.566406 C 104.125 160.566406 103.941406 160.746094 103.941406 160.96875 L 103.941406 167.875 C 103.941406 168.097656 104.125 168.28125 104.347656 168.28125 C 104.566406 168.28125 104.75 168.097656 104.75 167.875 Z M 106.246094 170.207031 L 106.246094 158.636719 C 106.246094 158.414062 106.066406 158.234375 105.84375 158.234375 C 105.621094 158.234375 105.441406 158.414062 105.441406 158.636719 L 105.441406 170.207031 C 105.441406 170.429688 105.621094 170.609375 105.84375 170.609375 C 106.066406 170.609375 106.246094 170.429688 106.246094 170.207031 Z M 107.742188 167.695312 L 107.742188 161.148438 C 107.742188 160.925781 107.5625 160.746094 107.339844 160.746094 C 107.117188 160.746094 106.9375 160.925781 106.9375 161.148438 L 106.9375 167.695312 C 106.9375 167.917969 107.117188 168.097656 107.339844 168.097656 C 107.5625 168.097656 107.742188 167.917969 107.742188 167.695312 Z M 122.660156 167.695312 L 122.660156 161.148438 C 122.660156 160.925781 122.480469 160.746094 122.257812 160.746094 C 122.035156 160.746094 121.855469 160.925781 121.855469 161.148438 L 121.855469 167.695312 C 121.855469 167.917969 122.035156 168.097656 122.257812 168.097656 C 122.480469 168.097656 122.660156 167.917969 122.660156 167.695312 Z M 109.238281 165.640625 L 109.238281 163.203125 C 109.238281 162.980469 109.058594 162.800781 108.835938 162.800781 C 108.613281 162.800781 108.433594 162.980469 108.433594 163.203125 L 108.433594 165.640625 C 108.433594 165.863281 108.613281 166.042969 108.835938 166.042969 C 109.058594 166.042969 109.238281 165.863281 109.238281 165.640625 Z M 119.691406 165.640625 L 119.691406 163.203125 C 119.691406 162.980469 119.511719 162.800781 119.289062 162.800781 C 119.066406 162.800781 118.886719 162.980469 118.886719 163.203125 L 118.886719 165.640625 C 118.886719 165.863281 119.066406 166.042969 119.289062 166.042969 C 119.511719 166.042969 119.691406 165.863281 119.691406 165.640625 Z M 110.734375 164.867188 L 110.734375 163.976562 C 110.734375 163.753906 110.554688 163.574219 110.332031 163.574219 C 110.109375 163.574219 109.929688 163.753906 109.929688 163.976562 L 109.929688 164.867188 C 109.929688 165.089844 110.109375 165.269531 110.332031 165.269531 C 110.554688 165.269531 110.734375 165.089844 110.734375 164.867188 Z M 112.234375 165.25 L 112.234375 163.597656 C 112.234375 163.375 112.054688 163.195312 111.832031 163.195312 C 111.609375 163.195312 111.429688 163.375 111.429688 163.597656 L 111.429688 165.25 C 111.429688 165.472656 111.609375 165.652344 111.832031 165.652344 C 112.054688 165.652344 112.234375 165.472656 112.234375 165.25 Z M 118.207031 165.25 L 118.207031 163.597656 C 118.207031 163.375 118.027344 163.195312 117.804688 163.195312 C 117.582031 163.195312 117.402344 163.375 117.402344 163.597656 L 117.402344 165.25 C 117.402344 165.472656 117.582031 165.652344 117.804688 165.652344 C 118.027344 165.652344 118.207031 165.472656 118.207031 165.25 Z M 113.730469 166.625 L 113.730469 162.21875 C 113.730469 161.996094 113.550781 161.816406 113.328125 161.816406 C 113.105469 161.816406 112.925781 161.996094 112.925781 162.21875 L 112.925781 166.625 C 112.925781 166.847656 113.105469 167.027344 113.328125 167.027344 C 113.550781 167.027344 113.730469 166.847656 113.730469 166.625 Z M 124.140625 166.625 L 124.140625 162.21875 C 124.140625 161.996094 123.960938 161.816406 123.738281 161.816406 C 123.515625 161.816406 123.335938 161.996094 123.335938 162.21875 L 123.335938 166.625 C 123.335938 166.847656 123.515625 167.027344 123.738281 167.027344 C 123.960938 167.027344 124.140625 166.847656 124.140625 166.625 Z M 121.175781 166.625 L 121.175781 162.21875 C 121.175781 161.996094 120.996094 161.816406 120.773438 161.816406 C 120.550781 161.816406 120.371094 161.996094 120.371094 162.21875 L 120.371094 166.625 C 120.371094 166.847656 120.550781 167.027344 120.773438 167.027344 C 120.996094 167.027344 121.175781 166.847656 121.175781 166.625 Z M 115.226562 165.070312 L 115.226562 163.777344 C 115.226562 163.554688 115.046875 163.375 114.824219 163.375 C 114.601562 163.375 114.421875 163.554688 114.421875 163.777344 L 114.421875 165.070312 C 114.421875 165.292969 114.601562 165.472656 114.824219 165.472656 C 115.046875 165.472656 115.226562 165.292969 115.226562 165.070312 Z M 116.726562 165.726562 L 116.726562 163.121094 C 116.726562 162.898438 116.546875 162.714844 116.324219 162.714844 C 116.101562 162.714844 115.921875 162.898438 115.921875 163.121094 L 115.921875 165.726562 C 115.921875 165.949219 116.101562 166.128906 116.324219 166.128906 C 116.546875 166.128906 116.726562 165.949219 116.726562 165.726562 Z M 116.726562 165.726562 "/></g></g><g style="fill:#f5c7f7;fill-opacity:1;"><g transform="translate(133.861212, 173.44994)"><path style="stroke:none" d="M 21.4375 -12.921875 L 21.4375 -2.296875 C 21.4375 -1.515625 21.164062 -0.90625 20.625 -0.46875 C 20.082031 -0.03125 19.070312 0.1875 17.59375 0.1875 C 15.019531 0.1875 12.804688 -0.09375 10.953125 -0.65625 C 9.109375 -1.21875 7.5625 -1.960938 6.3125 -2.890625 C 5.070312 -3.816406 4.078125 -4.828125 3.328125 -5.921875 C 2.578125 -7.023438 2.035156 -8.128906 1.703125 -9.234375 C 1.378906 -10.347656 1.195312 -11.351562 1.15625 -12.25 C 1.09375 -14.132812 1.410156 -15.8125 2.109375 -17.28125 C 2.816406 -18.75 3.851562 -19.90625 5.21875 -20.75 C 6.582031 -21.59375 8.222656 -22.015625 10.140625 -22.015625 L 18.265625 -22.015625 C 18.847656 -22.015625 19.34375 -21.859375 19.75 -21.546875 C 20.15625 -21.242188 20.359375 -20.757812 20.359375 -20.09375 C 20.359375 -19.4375 20.15625 -18.953125 19.75 -18.640625 C 19.34375 -18.328125 18.847656 -18.171875 18.265625 -18.171875 L 11.265625 -18.171875 C 9.347656 -18.171875 7.941406 -17.695312 7.046875 -16.75 C 6.148438 -15.800781 5.703125 -14.535156 5.703125 -12.953125 C 5.703125 -10.929688 6.226562 -9.226562 7.28125 -7.84375 C 8.332031 -6.457031 9.742188 -5.410156 11.515625 -4.703125 C 13.285156 -3.992188 15.25 -3.640625 17.40625 -3.640625 L 17.40625 -11.640625 L 12.546875 -11.640625 C 12.015625 -11.640625 11.550781 -11.789062 11.15625 -12.09375 C 10.757812 -12.394531 10.5625 -12.851562 10.5625 -13.46875 C 10.5625 -14.09375 10.757812 -14.550781 11.15625 -14.84375 C 11.550781 -15.144531 12.015625 -15.296875 12.546875 -15.296875 L 18.6875 -15.296875 C 19.820312 -15.296875 20.5625 -15.0625 20.90625 -14.59375 C 21.257812 -14.125 21.4375 -13.566406 21.4375 -12.921875 Z M 21.4375 -12.921875 "/></g></g><g style="fill:#f5c7f7;fill-opacity:1;"><g transform="translate(156.95953, 173.44994)"><path style="stroke:none" d="M 2.203125 -2.078125 L 2.203125 -14.5 C 2.203125 -15.800781 2.789062 -16.453125 3.96875 -16.453125 C 4.332031 -16.453125 4.691406 -16.375 5.046875 -16.21875 C 5.410156 -16.070312 5.628906 -15.632812 5.703125 -14.90625 L 5.765625 -13.921875 L 5.828125 -13.921875 C 5.953125 -14.796875 6.300781 -15.4375 6.875 -15.84375 C 7.457031 -16.25 8.195312 -16.453125 9.09375 -16.453125 C 9.789062 -16.453125 10.296875 -16.28125 10.609375 -15.9375 C 10.921875 -15.59375 11.078125 -15.144531 11.078125 -14.59375 C 11.078125 -14 10.878906 -13.550781 10.484375 -13.25 C 10.085938 -12.945312 9.546875 -12.796875 8.859375 -12.796875 C 7.921875 -12.796875 7.21875 -12.546875 6.75 -12.046875 C 6.28125 -11.546875 6.046875 -10.5625 6.046875 -9.09375 L 6.046875 -2.078125 C 6.046875 -1.460938 5.878906 -0.945312 5.546875 -0.53125 C 5.222656 -0.113281 4.75 0.09375 4.125 0.09375 C 3.53125 0.09375 3.0625 -0.113281 2.71875 -0.53125 C 2.375 -0.945312 2.203125 -1.460938 2.203125 -2.078125 Z M 2.203125 -2.078125 "/></g></g><g style="fill:#f5c7f7;fill-opacity:1;"><g transform="translate(167.612915, 173.44994)"><path style="stroke:none" d="M 16.765625 -8.125 C 16.765625 -6.570312 16.453125 -5.164062 15.828125 -3.90625 C 15.210938 -2.644531 14.316406 -1.644531 13.140625 -0.90625 C 11.972656 -0.175781 10.554688 0.1875 8.890625 0.1875 C 7.234375 0.1875 5.816406 -0.175781 4.640625 -0.90625 C 3.460938 -1.644531 2.566406 -2.644531 1.953125 -3.90625 C 1.335938 -5.164062 1.03125 -6.570312 1.03125 -8.125 C 1.03125 -9.6875 1.335938 -11.09375 1.953125 -12.34375 C 2.566406 -13.601562 3.460938 -14.601562 4.640625 -15.34375 C 5.816406 -16.082031 7.234375 -16.453125 8.890625 -16.453125 C 10.554688 -16.453125 11.972656 -16.082031 13.140625 -15.34375 C 14.316406 -14.601562 15.210938 -13.601562 15.828125 -12.34375 C 16.453125 -11.09375 16.765625 -9.6875 16.765625 -8.125 Z M 12.734375 -8.125 C 12.734375 -8.976562 12.59375 -9.769531 12.3125 -10.5 C 12.039062 -11.238281 11.617188 -11.835938 11.046875 -12.296875 C 10.484375 -12.753906 9.765625 -12.984375 8.890625 -12.984375 C 8.015625 -12.984375 7.296875 -12.753906 6.734375 -12.296875 C 6.171875 -11.835938 5.75 -11.238281 5.46875 -10.5 C 5.195312 -9.769531 5.0625 -8.976562 5.0625 -8.125 C 5.0625 -7.269531 5.195312 -6.472656 5.46875 -5.734375 C 5.75 -5.003906 6.171875 -4.410156 6.734375 -3.953125 C 7.296875 -3.492188 8.015625 -3.265625 8.890625 -3.265625 C 9.765625 -3.265625 10.484375 -3.492188 11.046875 -3.953125 C 11.617188 -4.410156 12.039062 -5.003906 12.3125 -5.734375 C 12.59375 -6.472656 12.734375 -7.269531 12.734375 -8.125 Z M 12.734375 -8.125 "/></g></g><g style="fill:#f5c7f7;fill-opacity:1;"><g transform="translate(185.400546, 173.44994)"><path style="stroke:none" d="M 16.765625 -8.125 C 16.765625 -6.570312 16.453125 -5.164062 15.828125 -3.90625 C 15.210938 -2.644531 14.316406 -1.644531 13.140625 -0.90625 C 11.972656 -0.175781 10.554688 0.1875 8.890625 0.1875 C 7.234375 0.1875 5.816406 -0.175781 4.640625 -0.90625 C 3.460938 -1.644531 2.566406 -2.644531 1.953125 -3.90625 C 1.335938 -5.164062 1.03125 -6.570312 1.03125 -8.125 C 1.03125 -9.6875 1.335938 -11.09375 1.953125 -12.34375 C 2.566406 -13.601562 3.460938 -14.601562 4.640625 -15.34375 C 5.816406 -16.082031 7.234375 -16.453125 8.890625 -16.453125 C 10.554688 -16.453125 11.972656 -16.082031 13.140625 -15.34375 C 14.316406 -14.601562 15.210938 -13.601562 15.828125 -12.34375 C 16.453125 -11.09375 16.765625 -9.6875 16.765625 -8.125 Z M 12.734375 -8.125 C 12.734375 -8.976562 12.59375 -9.769531 12.3125 -10.5 C 12.039062 -11.238281 11.617188 -11.835938 11.046875 -12.296875 C 10.484375 -12.753906 9.765625 -12.984375 8.890625 -12.984375 C 8.015625 -12.984375 7.296875 -12.753906 6.734375 -12.296875 C 6.171875 -11.835938 5.75 -11.238281 5.46875 -10.5 C 5.195312 -9.769531 5.0625 -8.976562 5.0625 -8.125 C 5.0625 -7.269531 5.195312 -6.472656 5.46875 -5.734375 C 5.75 -5.003906 6.171875 -4.410156 6.734375 -3.953125 C 7.296875 -3.492188 8.015625 -3.265625 8.890625 -3.265625 C 9.765625 -3.265625 10.484375 -3.492188 11.046875 -3.953125 C 11.617188 -4.410156 12.039062 -5.003906 12.3125 -5.734375 C 12.59375 -6.472656 12.734375 -7.269531 12.734375 -8.125 Z M 12.734375 -8.125 "/></g></g><g style="fill:#f5c7f7;fill-opacity:1;"><g transform="translate(203.188177, 173.44994)"><path style="stroke:none" d="M 8 -3.9375 C 8.570312 -4.769531 9.054688 -5.71875 9.453125 -6.78125 C 9.847656 -7.851562 10.179688 -8.960938 10.453125 -10.109375 C 10.734375 -11.265625 10.953125 -12.375 11.109375 -13.4375 C 11.253906 -14.457031 11.445312 -15.210938 11.6875 -15.703125 C 11.9375 -16.203125 12.414062 -16.453125 13.125 -16.453125 C 14.332031 -16.453125 14.9375 -15.863281 14.9375 -14.6875 C 14.9375 -13.445312 14.753906 -12.0625 14.390625 -10.53125 C 14.035156 -9.007812 13.53125 -7.445312 12.875 -5.84375 C 12.226562 -4.25 11.445312 -2.71875 10.53125 -1.25 C 10.1875 -0.71875 9.789062 -0.34375 9.34375 -0.125 C 8.894531 0.0820312 8.445312 0.1875 8 0.1875 C 7.550781 0.1875 7.101562 0.0820312 6.65625 -0.125 C 6.207031 -0.34375 5.8125 -0.71875 5.46875 -1.25 C 4.570312 -2.71875 3.789062 -4.25 3.125 -5.84375 C 2.46875 -7.445312 1.957031 -9.007812 1.59375 -10.53125 C 1.238281 -12.0625 1.0625 -13.445312 1.0625 -14.6875 C 1.0625 -15.863281 1.664062 -16.453125 2.875 -16.453125 C 3.582031 -16.453125 4.054688 -16.203125 4.296875 -15.703125 C 4.546875 -15.210938 4.742188 -14.457031 4.890625 -13.4375 C 5.066406 -12.375 5.285156 -11.265625 5.546875 -10.109375 C 5.816406 -8.960938 6.15625 -7.851562 6.5625 -6.78125 C 6.96875 -5.71875 7.445312 -4.769531 8 -3.9375 Z M 8 -3.9375 "/></g></g><g style="fill:#f5c7f7;fill-opacity:1;"><g transform="translate(219.184246, 173.44994)"><path style="stroke:none" d="M 16.765625 -8.125 C 16.765625 -6.570312 16.453125 -5.164062 15.828125 -3.90625 C 15.210938 -2.644531 14.316406 -1.644531 13.140625 -0.90625 C 11.972656 -0.175781 10.554688 0.1875 8.890625 0.1875 C 7.234375 0.1875 5.816406 -0.175781 4.640625 -0.90625 C 3.460938 -1.644531 2.566406 -2.644531 1.953125 -3.90625 C 1.335938 -5.164062 1.03125 -6.570312 1.03125 -8.125 C 1.03125 -9.6875 1.335938 -11.09375 1.953125 -12.34375 C 2.566406 -13.601562 3.460938 -14.601562 4.640625 -15.34375 C 5.816406 -16.082031 7.234375 -16.453125 8.890625 -16.453125 C 10.554688 -16.453125 11.972656 -16.082031 13.140625 -15.34375 C 14.316406 -14.601562 15.210938 -13.601562 15.828125 -12.34375 C 16.453125 -11.09375 16.765625 -9.6875 16.765625 -8.125 Z M 12.734375 -8.125 C 12.734375 -8.976562 12.59375 -9.769531 12.3125 -10.5 C 12.039062 -11.238281 11.617188 -11.835938 11.046875 -12.296875 C 10.484375 -12.753906 9.765625 -12.984375 8.890625 -12.984375 C 8.015625 -12.984375 7.296875 -12.753906 6.734375 -12.296875 C 6.171875 -11.835938 5.75 -11.238281 5.46875 -10.5 C 5.195312 -9.769531 5.0625 -8.976562 5.0625 -8.125 C 5.0625 -7.269531 5.195312 -6.472656 5.46875 -5.734375 C 5.75 -5.003906 6.171875 -4.410156 6.734375 -3.953125 C 7.296875 -3.492188 8.015625 -3.265625 8.890625 -3.265625 C 9.765625 -3.265625 10.484375 -3.492188 11.046875 -3.953125 C 11.617188 -4.410156 12.039062 -5.003906 12.3125 -5.734375 C 12.59375 -6.472656 12.734375 -7.269531 12.734375 -8.125 Z M 12.734375 -8.125 "/></g></g><g style="fill:#f5c7f7;fill-opacity:1;"><g transform="translate(236.971878, 173.44994)"><path style="stroke:none" d="M 1.953125 -1.984375 L 1.953125 -14.375 C 1.953125 -14.945312 2.101562 -15.4375 2.40625 -15.84375 C 2.71875 -16.25 3.207031 -16.453125 3.875 -16.453125 C 4.53125 -16.453125 5.015625 -16.265625 5.328125 -15.890625 C 5.640625 -15.515625 5.796875 -15.125 5.796875 -14.71875 C 7.003906 -15.875 8.441406 -16.453125 10.109375 -16.453125 C 11.265625 -16.453125 12.269531 -16.195312 13.125 -15.6875 C 13.976562 -15.1875 14.640625 -14.5 15.109375 -13.625 C 15.578125 -12.75 15.8125 -11.769531 15.8125 -10.6875 L 15.8125 -1.984375 C 15.8125 -1.410156 15.65625 -0.921875 15.34375 -0.515625 C 15.03125 -0.109375 14.546875 0.09375 13.890625 0.09375 C 13.222656 0.09375 12.734375 -0.109375 12.421875 -0.515625 C 12.117188 -0.921875 11.96875 -1.410156 11.96875 -1.984375 L 11.96875 -9.65625 C 11.96875 -11.875 11.101562 -12.984375 9.375 -12.984375 C 8.289062 -12.984375 7.421875 -12.609375 6.765625 -11.859375 C 6.117188 -11.117188 5.796875 -10.003906 5.796875 -8.515625 L 5.796875 -1.984375 C 5.796875 -1.410156 5.640625 -0.921875 5.328125 -0.515625 C 5.015625 -0.109375 4.53125 0.09375 3.875 0.09375 C 3.207031 0.09375 2.71875 -0.109375 2.40625 -0.515625 C 2.101562 -0.921875 1.953125 -1.410156 1.953125 -1.984375 Z M 1.953125 -1.984375 "/></g></g><g style="fill:#f5c7f7;fill-opacity:1;"><g transform="translate(254.759509, 173.44994)"><path style="stroke:none" d="M 16.765625 -8.125 C 16.765625 -6.570312 16.453125 -5.164062 15.828125 -3.90625 C 15.210938 -2.644531 14.316406 -1.644531 13.140625 -0.90625 C 11.972656 -0.175781 10.554688 0.1875 8.890625 0.1875 C 7.234375 0.1875 5.816406 -0.175781 4.640625 -0.90625 C 3.460938 -1.644531 2.566406 -2.644531 1.953125 -3.90625 C 1.335938 -5.164062 1.03125 -6.570312 1.03125 -8.125 C 1.03125 -9.6875 1.335938 -11.09375 1.953125 -12.34375 C 2.566406 -13.601562 3.460938 -14.601562 4.640625 -15.34375 C 5.816406 -16.082031 7.234375 -16.453125 8.890625 -16.453125 C 10.554688 -16.453125 11.972656 -16.082031 13.140625 -15.34375 C 14.316406 -14.601562 15.210938 -13.601562 15.828125 -12.34375 C 16.453125 -11.09375 16.765625 -9.6875 16.765625 -8.125 Z M 12.734375 -8.125 C 12.734375 -8.976562 12.59375 -9.769531 12.3125 -10.5 C 12.039062 -11.238281 11.617188 -11.835938 11.046875 -12.296875 C 10.484375 -12.753906 9.765625 -12.984375 8.890625 -12.984375 C 8.015625 -12.984375 7.296875 -12.753906 6.734375 -12.296875 C 6.171875 -11.835938 5.75 -11.238281 5.46875 -10.5 C 5.195312 -9.769531 5.0625 -8.976562 5.0625 -8.125 C 5.0625 -7.269531 5.195312 -6.472656 5.46875 -5.734375 C 5.75 -5.003906 6.171875 -4.410156 6.734375 -3.953125 C 7.296875 -3.492188 8.015625 -3.265625 8.890625 -3.265625 C 9.765625 -3.265625 10.484375 -3.492188 11.046875 -3.953125 C 11.617188 -4.410156 12.039062 -5.003906 12.3125 -5.734375 C 12.59375 -6.472656 12.734375 -7.269531 12.734375 -8.125 Z M 12.734375 -8.125 "/></g></g><g style="fill:#f5c7f7;fill-opacity:1;"><g transform="translate(272.54714, 173.44994)"><path style="stroke:none" d="M 1.890625 -1.984375 L 1.890625 -14.59375 C 1.890625 -15.101562 2.023438 -15.539062 2.296875 -15.90625 C 2.578125 -16.269531 3.015625 -16.453125 3.609375 -16.453125 C 4.210938 -16.453125 4.648438 -16.273438 4.921875 -15.921875 C 5.203125 -15.566406 5.34375 -15.164062 5.34375 -14.71875 C 5.894531 -15.269531 6.507812 -15.695312 7.1875 -16 C 7.875 -16.300781 8.613281 -16.453125 9.40625 -16.453125 C 10.34375 -16.453125 11.140625 -16.28125 11.796875 -15.9375 C 12.460938 -15.59375 13.160156 -14.960938 13.890625 -14.046875 C 14.566406 -14.691406 15.332031 -15.253906 16.1875 -15.734375 C 17.039062 -16.210938 17.992188 -16.453125 19.046875 -16.453125 C 20.191406 -16.453125 21.191406 -16.195312 22.046875 -15.6875 C 22.898438 -15.1875 23.5625 -14.5 24.03125 -13.625 C 24.5 -12.75 24.734375 -11.769531 24.734375 -10.6875 L 24.734375 -1.984375 C 24.734375 -1.410156 24.578125 -0.921875 24.265625 -0.515625 C 23.960938 -0.109375 23.476562 0.09375 22.8125 0.09375 C 22.15625 0.09375 21.671875 -0.109375 21.359375 -0.515625 C 21.046875 -0.921875 20.890625 -1.410156 20.890625 -1.984375 L 20.890625 -9.09375 C 20.890625 -10.195312 20.722656 -11.117188 20.390625 -11.859375 C 20.066406 -12.609375 19.367188 -12.984375 18.296875 -12.984375 C 17.453125 -12.984375 16.726562 -12.613281 16.125 -11.875 C 15.53125 -11.144531 15.234375 -10.023438 15.234375 -8.515625 L 15.234375 -1.984375 C 15.234375 -1.410156 15.078125 -0.921875 14.765625 -0.515625 C 14.453125 -0.109375 13.96875 0.09375 13.3125 0.09375 C 12.644531 0.09375 12.15625 -0.109375 11.84375 -0.515625 C 11.539062 -0.921875 11.390625 -1.410156 11.390625 -1.984375 L 11.390625 -9.09375 C 11.390625 -10.195312 11.222656 -11.117188 10.890625 -11.859375 C 10.566406 -12.609375 9.867188 -12.984375 8.796875 -12.984375 C 7.941406 -12.984375 7.21875 -12.613281 6.625 -11.875 C 6.03125 -11.144531 5.734375 -10.023438 5.734375 -8.515625 L 5.734375 -1.984375 C 5.734375 -1.410156 5.578125 -0.921875 5.265625 -0.515625 C 4.953125 -0.109375 4.46875 0.09375 3.8125 0.09375 C 3.144531 0.09375 2.65625 -0.109375 2.34375 -0.515625 C 2.039062 -0.921875 1.890625 -1.410156 1.890625 -1.984375 Z M 1.890625 -1.984375 "/></g></g><g style="fill:#f5c7f7;fill-opacity:1;"><g transform="translate(299.196594, 173.44994)"><path style="stroke:none" d="M 3.8125 3.359375 L 6.4375 -0.21875 C 5.445312 -1.539062 4.554688 -2.957031 3.765625 -4.46875 C 2.984375 -5.988281 2.359375 -7.5625 1.890625 -9.1875 C 1.421875 -10.820312 1.1875 -12.472656 1.1875 -14.140625 C 1.1875 -14.828125 1.328125 -15.382812 1.609375 -15.8125 C 1.898438 -16.238281 2.367188 -16.453125 3.015625 -16.453125 C 3.523438 -16.453125 3.941406 -16.296875 4.265625 -15.984375 C 4.597656 -15.671875 4.785156 -15.175781 4.828125 -14.5 C 4.984375 -12.664062 5.335938 -10.785156 5.890625 -8.859375 C 6.441406 -6.941406 7.238281 -5.21875 8.28125 -3.6875 C 8.925781 -4.75 9.476562 -5.921875 9.9375 -7.203125 C 10.394531 -8.484375 10.773438 -9.785156 11.078125 -11.109375 C 11.390625 -12.429688 11.632812 -13.695312 11.8125 -14.90625 C 11.875 -15.375 12.070312 -15.75 12.40625 -16.03125 C 12.75 -16.3125 13.15625 -16.453125 13.625 -16.453125 C 14.125 -16.453125 14.554688 -16.28125 14.921875 -15.9375 C 15.296875 -15.59375 15.484375 -15.082031 15.484375 -14.40625 C 15.484375 -13.632812 15.328125 -12.660156 15.015625 -11.484375 C 14.710938 -10.316406 14.3125 -9.0625 13.8125 -7.71875 C 13.3125 -6.375 12.753906 -5.035156 12.140625 -3.703125 C 11.535156 -2.367188 10.929688 -1.140625 10.328125 -0.015625 C 9.734375 1.097656 9.191406 2.007812 8.703125 2.71875 L 7.078125 5.09375 C 6.796875 5.5 6.492188 5.878906 6.171875 6.234375 C 5.859375 6.597656 5.421875 6.78125 4.859375 6.78125 C 4.328125 6.78125 3.890625 6.609375 3.546875 6.265625 C 3.210938 5.929688 3.046875 5.519531 3.046875 5.03125 C 3.046875 4.644531 3.125 4.332031 3.28125 4.09375 C 3.4375 3.863281 3.613281 3.617188 3.8125 3.359375 Z M 3.8125 3.359375 "/></g></g></g></svg>